%TF.GenerationSoftware,KiCad,Pcbnew,(6.0.9)*%
%TF.CreationDate,2022-12-02T17:41:07+09:00*%
%TF.ProjectId,inverting_amplifier_circuirt,696e7665-7274-4696-9e67-5f616d706c69,0*%
%TF.SameCoordinates,Original*%
%TF.FileFunction,Copper,L2,Bot*%
%TF.FilePolarity,Positive*%
%FSLAX46Y46*%
G04 Gerber Fmt 4.6, Leading zero omitted, Abs format (unit mm)*
G04 Created by KiCad (PCBNEW (6.0.9)) date 2022-12-02 17:41:07*
%MOMM*%
%LPD*%
G01*
G04 APERTURE LIST*
%TA.AperFunction,ComponentPad*%
%ADD10R,1.600000X1.600000*%
%TD*%
%TA.AperFunction,ComponentPad*%
%ADD11O,1.600000X1.600000*%
%TD*%
%TA.AperFunction,ComponentPad*%
%ADD12R,1.700000X1.700000*%
%TD*%
%TA.AperFunction,ComponentPad*%
%ADD13O,1.700000X1.700000*%
%TD*%
%TA.AperFunction,ComponentPad*%
%ADD14C,3.500000*%
%TD*%
%TA.AperFunction,ViaPad*%
%ADD15C,0.800000*%
%TD*%
%TA.AperFunction,Conductor*%
%ADD16C,0.250000*%
%TD*%
G04 APERTURE END LIST*
D10*
%TO.P,U1,1*%
%TO.N,Net-(J2-Pad1)*%
X139456000Y-73904000D03*
D11*
%TO.P,U1,2,-*%
%TO.N,Net-(R1-Pad2)*%
X141996000Y-73904000D03*
%TO.P,U1,3,+*%
%TO.N,GND*%
X144536000Y-73904000D03*
%TO.P,U1,4,V-*%
%TO.N,-12V*%
X147076000Y-73904000D03*
%TO.P,U1,5,+*%
%TO.N,GND*%
X147076000Y-66284000D03*
%TO.P,U1,6,-*%
%TO.N,Net-(U1-Pad6)*%
X144536000Y-66284000D03*
%TO.P,U1,7*%
X141996000Y-66284000D03*
%TO.P,U1,8,V+*%
%TO.N,+12V*%
X139456000Y-66284000D03*
%TD*%
D12*
%TO.P,J3,1,Pin_1*%
%TO.N,+12V*%
X144795000Y-78740000D03*
D13*
%TO.P,J3,2,Pin_2*%
%TO.N,-12V*%
X147335000Y-78740000D03*
%TO.P,J3,3,Pin_3*%
%TO.N,GND*%
X149875000Y-78740000D03*
%TD*%
D12*
%TO.P,J2,1,Pin_1*%
%TO.N,Net-(J2-Pad1)*%
X152400000Y-73919000D03*
D13*
%TO.P,J2,2,Pin_2*%
%TO.N,GND*%
X152400000Y-71379000D03*
%TD*%
%TO.P,J1,2,Pin_2*%
%TO.N,GND*%
X134112000Y-73909000D03*
D12*
%TO.P,J1,1,Pin_1*%
%TO.N,Net-(J1-Pad1)*%
X134112000Y-71369000D03*
%TD*%
D14*
%TO.P,REF2,1*%
%TO.N,GND*%
X154500000Y-66500000D03*
%TD*%
%TO.P,REF3,1*%
%TO.N,GND*%
X130000000Y-81000000D03*
%TD*%
%TO.P,REF4,1*%
%TO.N,GND*%
X154500000Y-80750000D03*
%TD*%
%TO.P,REF1,1*%
%TO.N,GND*%
X130000000Y-66500000D03*
%TD*%
D15*
%TO.N,+12V*%
X142250000Y-69000000D03*
%TO.N,GND*%
X131000000Y-71500000D03*
X129000000Y-71500000D03*
X129000000Y-73500000D03*
X131000000Y-73500000D03*
X131000000Y-75500000D03*
X129000000Y-75500000D03*
X129000000Y-77500000D03*
X131000000Y-77500000D03*
X151500000Y-67750000D03*
X149750000Y-67750000D03*
X155000000Y-76750000D03*
X151250000Y-81750000D03*
X133000000Y-81000000D03*
X135000000Y-79250000D03*
X133000000Y-79250000D03*
X135000000Y-77500000D03*
X133000000Y-77500000D03*
X151500000Y-66000000D03*
X149750000Y-66000000D03*
X133750000Y-67500000D03*
X136000000Y-67500000D03*
X136000000Y-65500000D03*
X133750000Y-65500000D03*
X155000000Y-74750000D03*
X155000000Y-72750000D03*
X155000000Y-70750000D03*
X149250000Y-81750000D03*
X147250000Y-81750000D03*
%TD*%
D16*
%TO.N,+12V*%
X143121000Y-77066000D02*
X144795000Y-78740000D01*
X143121000Y-69871000D02*
X143121000Y-77066000D01*
X142250000Y-69000000D02*
X143121000Y-69871000D01*
%TD*%
%TA.AperFunction,Conductor*%
%TO.N,GND*%
G36*
X129151022Y-64188502D02*
G01*
X129197515Y-64242158D01*
X129207619Y-64312432D01*
X129178125Y-64377012D01*
X129133827Y-64408957D01*
X129134047Y-64409404D01*
X129131389Y-64410715D01*
X129131121Y-64410908D01*
X129130347Y-64411228D01*
X128872282Y-64538492D01*
X128865145Y-64542613D01*
X128625901Y-64702470D01*
X128619361Y-64707488D01*
X128604926Y-64720147D01*
X128596528Y-64733386D01*
X128602362Y-64743151D01*
X129987190Y-66127980D01*
X130001131Y-66135592D01*
X130002966Y-66135461D01*
X130009580Y-66131210D01*
X131395884Y-64744905D01*
X131403399Y-64731144D01*
X131396941Y-64721784D01*
X131380639Y-64707488D01*
X131374099Y-64702470D01*
X131134856Y-64542613D01*
X131127719Y-64538492D01*
X130869653Y-64411229D01*
X130868879Y-64410908D01*
X130868684Y-64410751D01*
X130865953Y-64409404D01*
X130866254Y-64408793D01*
X130813599Y-64366359D01*
X130791179Y-64298996D01*
X130808738Y-64230204D01*
X130860701Y-64181827D01*
X130917099Y-64168500D01*
X153582901Y-64168500D01*
X153651022Y-64188502D01*
X153697515Y-64242158D01*
X153707619Y-64312432D01*
X153678125Y-64377012D01*
X153633827Y-64408957D01*
X153634047Y-64409404D01*
X153631389Y-64410715D01*
X153631121Y-64410908D01*
X153630347Y-64411228D01*
X153372282Y-64538492D01*
X153365145Y-64542613D01*
X153125901Y-64702470D01*
X153119361Y-64707488D01*
X153104926Y-64720147D01*
X153096528Y-64733386D01*
X153102362Y-64743151D01*
X154487190Y-66127980D01*
X154501131Y-66135592D01*
X154502966Y-66135461D01*
X154509580Y-66131210D01*
X155895884Y-64744905D01*
X155903399Y-64731144D01*
X155896941Y-64721784D01*
X155880639Y-64707488D01*
X155874099Y-64702470D01*
X155634856Y-64542613D01*
X155627719Y-64538492D01*
X155369653Y-64411229D01*
X155368879Y-64410908D01*
X155368684Y-64410751D01*
X155365953Y-64409404D01*
X155366254Y-64408793D01*
X155313599Y-64366359D01*
X155291179Y-64298996D01*
X155308738Y-64230204D01*
X155360701Y-64181827D01*
X155417099Y-64168500D01*
X156605500Y-64168500D01*
X156673621Y-64188502D01*
X156720114Y-64242158D01*
X156731500Y-64294500D01*
X156731500Y-65379388D01*
X156711498Y-65447509D01*
X156657842Y-65494002D01*
X156587568Y-65504106D01*
X156522988Y-65474612D01*
X156492494Y-65435116D01*
X156461508Y-65372282D01*
X156457387Y-65365145D01*
X156297530Y-65125901D01*
X156292512Y-65119361D01*
X156279853Y-65104926D01*
X156266614Y-65096528D01*
X156256849Y-65102362D01*
X154872020Y-66487190D01*
X154864408Y-66501131D01*
X154864539Y-66502966D01*
X154868790Y-66509580D01*
X156255095Y-67895884D01*
X156268856Y-67903399D01*
X156278216Y-67896941D01*
X156292512Y-67880639D01*
X156297530Y-67874099D01*
X156457387Y-67634855D01*
X156461508Y-67627718D01*
X156492494Y-67564884D01*
X156540562Y-67512635D01*
X156609248Y-67494668D01*
X156676744Y-67516687D01*
X156721620Y-67571702D01*
X156731500Y-67620612D01*
X156731500Y-79629388D01*
X156711498Y-79697509D01*
X156657842Y-79744002D01*
X156587568Y-79754106D01*
X156522988Y-79724612D01*
X156492494Y-79685116D01*
X156461508Y-79622282D01*
X156457387Y-79615145D01*
X156297530Y-79375901D01*
X156292512Y-79369361D01*
X156279853Y-79354926D01*
X156266614Y-79346528D01*
X156256849Y-79352362D01*
X154872020Y-80737190D01*
X154864408Y-80751131D01*
X154864539Y-80752966D01*
X154868790Y-80759580D01*
X156255095Y-82145884D01*
X156268856Y-82153399D01*
X156278216Y-82146941D01*
X156292512Y-82130639D01*
X156297530Y-82124099D01*
X156457387Y-81884855D01*
X156461508Y-81877718D01*
X156492494Y-81814884D01*
X156540562Y-81762635D01*
X156609248Y-81744668D01*
X156676744Y-81766687D01*
X156721620Y-81821702D01*
X156731500Y-81870612D01*
X156731500Y-83025500D01*
X156711498Y-83093621D01*
X156657842Y-83140114D01*
X156605500Y-83151500D01*
X155213229Y-83151500D01*
X155145108Y-83131498D01*
X155098615Y-83077842D01*
X155088511Y-83007568D01*
X155118005Y-82942988D01*
X155172728Y-82906187D01*
X155362047Y-82841922D01*
X155369651Y-82838772D01*
X155627719Y-82711508D01*
X155634856Y-82707387D01*
X155874099Y-82547530D01*
X155880639Y-82542512D01*
X155895074Y-82529853D01*
X155903472Y-82516614D01*
X155897638Y-82506849D01*
X154512810Y-81122020D01*
X154498869Y-81114408D01*
X154497034Y-81114539D01*
X154490420Y-81118790D01*
X153104116Y-82505095D01*
X153096601Y-82518856D01*
X153103059Y-82528216D01*
X153119361Y-82542512D01*
X153125901Y-82547530D01*
X153365144Y-82707387D01*
X153372281Y-82711508D01*
X153630349Y-82838772D01*
X153637953Y-82841922D01*
X153827272Y-82906187D01*
X153885348Y-82947024D01*
X153912127Y-83012777D01*
X153899106Y-83082569D01*
X153850419Y-83134242D01*
X153786771Y-83151500D01*
X131259712Y-83151500D01*
X131191591Y-83131498D01*
X131145098Y-83077842D01*
X131134994Y-83007568D01*
X131164488Y-82942988D01*
X131189710Y-82920735D01*
X131374099Y-82797530D01*
X131380639Y-82792512D01*
X131395074Y-82779853D01*
X131403472Y-82766614D01*
X131397638Y-82756849D01*
X130012810Y-81372020D01*
X129998869Y-81364408D01*
X129997034Y-81364539D01*
X129990420Y-81368790D01*
X128604116Y-82755095D01*
X128596601Y-82768856D01*
X128603059Y-82778216D01*
X128619361Y-82792512D01*
X128625901Y-82797530D01*
X128810290Y-82920735D01*
X128855818Y-82975212D01*
X128864666Y-83045655D01*
X128834025Y-83109699D01*
X128773623Y-83147010D01*
X128740288Y-83151500D01*
X127874500Y-83151500D01*
X127806379Y-83131498D01*
X127759886Y-83077842D01*
X127748500Y-83025500D01*
X127748500Y-82080056D01*
X127768502Y-82011935D01*
X127822158Y-81965442D01*
X127892432Y-81955338D01*
X127957012Y-81984832D01*
X127987506Y-82024328D01*
X128038492Y-82127718D01*
X128042613Y-82134855D01*
X128202470Y-82374099D01*
X128207488Y-82380639D01*
X128220147Y-82395074D01*
X128233386Y-82403472D01*
X128243151Y-82397638D01*
X129627980Y-81012810D01*
X129634357Y-81001131D01*
X130364408Y-81001131D01*
X130364539Y-81002966D01*
X130368790Y-81009580D01*
X131755095Y-82395884D01*
X131768856Y-82403399D01*
X131778216Y-82396941D01*
X131792512Y-82380639D01*
X131797530Y-82374099D01*
X131957387Y-82134855D01*
X131961508Y-82127718D01*
X132088772Y-81869651D01*
X132091922Y-81862047D01*
X132184412Y-81589580D01*
X132186546Y-81581617D01*
X132242683Y-81299400D01*
X132243756Y-81291249D01*
X132262575Y-81004119D01*
X132262575Y-80995881D01*
X132246729Y-80754119D01*
X152237425Y-80754119D01*
X152256244Y-81041249D01*
X152257317Y-81049400D01*
X152313454Y-81331617D01*
X152315588Y-81339580D01*
X152408078Y-81612047D01*
X152411228Y-81619651D01*
X152538492Y-81877718D01*
X152542613Y-81884855D01*
X152702470Y-82124099D01*
X152707488Y-82130639D01*
X152720147Y-82145074D01*
X152733386Y-82153472D01*
X152743151Y-82147638D01*
X154127980Y-80762810D01*
X154135592Y-80748869D01*
X154135461Y-80747034D01*
X154131210Y-80740420D01*
X152744905Y-79354116D01*
X152731144Y-79346601D01*
X152721784Y-79353059D01*
X152707488Y-79369361D01*
X152702470Y-79375901D01*
X152542613Y-79615145D01*
X152538492Y-79622282D01*
X152411228Y-79880349D01*
X152408078Y-79887953D01*
X152315588Y-80160420D01*
X152313454Y-80168383D01*
X152257317Y-80450600D01*
X152256244Y-80458751D01*
X152237425Y-80745881D01*
X152237425Y-80754119D01*
X132246729Y-80754119D01*
X132243756Y-80708751D01*
X132242683Y-80700600D01*
X132186546Y-80418383D01*
X132184412Y-80410420D01*
X132091922Y-80137953D01*
X132088772Y-80130349D01*
X131961508Y-79872282D01*
X131957387Y-79865145D01*
X131797530Y-79625901D01*
X131792512Y-79619361D01*
X131779853Y-79604926D01*
X131766614Y-79596528D01*
X131756849Y-79602362D01*
X130372020Y-80987190D01*
X130364408Y-81001131D01*
X129634357Y-81001131D01*
X129635592Y-80998869D01*
X129635461Y-80997034D01*
X129631210Y-80990420D01*
X128244905Y-79604116D01*
X128231144Y-79596601D01*
X128221784Y-79603059D01*
X128207488Y-79619361D01*
X128202470Y-79625901D01*
X128042613Y-79865145D01*
X128038492Y-79872282D01*
X127987506Y-79975672D01*
X127939438Y-80027921D01*
X127870752Y-80045888D01*
X127803256Y-80023869D01*
X127758380Y-79968854D01*
X127748500Y-79919944D01*
X127748500Y-79233386D01*
X128596528Y-79233386D01*
X128602362Y-79243151D01*
X129987190Y-80627980D01*
X130001131Y-80635592D01*
X130002966Y-80635461D01*
X130009580Y-80631210D01*
X131395884Y-79244905D01*
X131403399Y-79231144D01*
X131396941Y-79221784D01*
X131380639Y-79207488D01*
X131374099Y-79202470D01*
X131134856Y-79042613D01*
X131127719Y-79038492D01*
X130869651Y-78911228D01*
X130862047Y-78908078D01*
X130589580Y-78815588D01*
X130581617Y-78813454D01*
X130299400Y-78757317D01*
X130291249Y-78756244D01*
X130004119Y-78737425D01*
X129995881Y-78737425D01*
X129708751Y-78756244D01*
X129700600Y-78757317D01*
X129418383Y-78813454D01*
X129410420Y-78815588D01*
X129137953Y-78908078D01*
X129130349Y-78911228D01*
X128872282Y-79038492D01*
X128865145Y-79042613D01*
X128625901Y-79202470D01*
X128619361Y-79207488D01*
X128604926Y-79220147D01*
X128596528Y-79233386D01*
X127748500Y-79233386D01*
X127748500Y-74176966D01*
X132780257Y-74176966D01*
X132810565Y-74311446D01*
X132813645Y-74321275D01*
X132893770Y-74518603D01*
X132898413Y-74527794D01*
X133009694Y-74709388D01*
X133015777Y-74717699D01*
X133155213Y-74878667D01*
X133162580Y-74885883D01*
X133326434Y-75021916D01*
X133334881Y-75027831D01*
X133518756Y-75135279D01*
X133528042Y-75139729D01*
X133727001Y-75215703D01*
X133736899Y-75218579D01*
X133840250Y-75239606D01*
X133854299Y-75238410D01*
X133858000Y-75228065D01*
X133858000Y-75227517D01*
X134366000Y-75227517D01*
X134370064Y-75241359D01*
X134383478Y-75243393D01*
X134390184Y-75242534D01*
X134400262Y-75240392D01*
X134604255Y-75179191D01*
X134613842Y-75175433D01*
X134805095Y-75081739D01*
X134813945Y-75076464D01*
X134987328Y-74952792D01*
X134995200Y-74946139D01*
X135146052Y-74795812D01*
X135152730Y-74787965D01*
X135178477Y-74752134D01*
X138147500Y-74752134D01*
X138154255Y-74814316D01*
X138205385Y-74950705D01*
X138292739Y-75067261D01*
X138409295Y-75154615D01*
X138545684Y-75205745D01*
X138607866Y-75212500D01*
X140304134Y-75212500D01*
X140366316Y-75205745D01*
X140502705Y-75154615D01*
X140619261Y-75067261D01*
X140706615Y-74950705D01*
X140757745Y-74814316D01*
X140758917Y-74803526D01*
X140759803Y-74801394D01*
X140760425Y-74798778D01*
X140760848Y-74798879D01*
X140786155Y-74737965D01*
X140844517Y-74697537D01*
X140915471Y-74695078D01*
X140976490Y-74731371D01*
X140983489Y-74740031D01*
X140986643Y-74743789D01*
X140989802Y-74748300D01*
X141151700Y-74910198D01*
X141156208Y-74913355D01*
X141156211Y-74913357D01*
X141197542Y-74942297D01*
X141339251Y-75041523D01*
X141344233Y-75043846D01*
X141344238Y-75043849D01*
X141540765Y-75135490D01*
X141546757Y-75138284D01*
X141552065Y-75139706D01*
X141552067Y-75139707D01*
X141762598Y-75196119D01*
X141762600Y-75196119D01*
X141767913Y-75197543D01*
X141996000Y-75217498D01*
X142224087Y-75197543D01*
X142328890Y-75169461D01*
X142399865Y-75171151D01*
X142458661Y-75210945D01*
X142486609Y-75276209D01*
X142487500Y-75291168D01*
X142487500Y-76987233D01*
X142486973Y-76998416D01*
X142485298Y-77005909D01*
X142485547Y-77013835D01*
X142485547Y-77013836D01*
X142487438Y-77073986D01*
X142487500Y-77077945D01*
X142487500Y-77105856D01*
X142487997Y-77109790D01*
X142487997Y-77109791D01*
X142488005Y-77109856D01*
X142488938Y-77121693D01*
X142490327Y-77165889D01*
X142495978Y-77185339D01*
X142499987Y-77204700D01*
X142502526Y-77224797D01*
X142505445Y-77232168D01*
X142505445Y-77232170D01*
X142518804Y-77265912D01*
X142522649Y-77277142D01*
X142534982Y-77319593D01*
X142539015Y-77326412D01*
X142539017Y-77326417D01*
X142545293Y-77337028D01*
X142553988Y-77354776D01*
X142561448Y-77373617D01*
X142566110Y-77380033D01*
X142566110Y-77380034D01*
X142587436Y-77409387D01*
X142593952Y-77419307D01*
X142609012Y-77444771D01*
X142616458Y-77457362D01*
X142630779Y-77471683D01*
X142643619Y-77486716D01*
X142655528Y-77503107D01*
X142661634Y-77508158D01*
X142689605Y-77531298D01*
X142698384Y-77539288D01*
X143399595Y-78240499D01*
X143433621Y-78302811D01*
X143436500Y-78329594D01*
X143436500Y-79638134D01*
X143443255Y-79700316D01*
X143494385Y-79836705D01*
X143581739Y-79953261D01*
X143698295Y-80040615D01*
X143834684Y-80091745D01*
X143896866Y-80098500D01*
X145693134Y-80098500D01*
X145755316Y-80091745D01*
X145891705Y-80040615D01*
X146008261Y-79953261D01*
X146095615Y-79836705D01*
X146117799Y-79777529D01*
X146139598Y-79719382D01*
X146182240Y-79662618D01*
X146248802Y-79637918D01*
X146318150Y-79653126D01*
X146352817Y-79681114D01*
X146381250Y-79713938D01*
X146553126Y-79856632D01*
X146746000Y-79969338D01*
X146954692Y-80049030D01*
X146959760Y-80050061D01*
X146959763Y-80050062D01*
X147054862Y-80069410D01*
X147173597Y-80093567D01*
X147178772Y-80093757D01*
X147178774Y-80093757D01*
X147391673Y-80101564D01*
X147391677Y-80101564D01*
X147396837Y-80101753D01*
X147401957Y-80101097D01*
X147401959Y-80101097D01*
X147613288Y-80074025D01*
X147613289Y-80074025D01*
X147618416Y-80073368D01*
X147623366Y-80071883D01*
X147827429Y-80010661D01*
X147827434Y-80010659D01*
X147832384Y-80009174D01*
X148032994Y-79910896D01*
X148214860Y-79781173D01*
X148373096Y-79623489D01*
X148387777Y-79603059D01*
X148503453Y-79442077D01*
X148504640Y-79442930D01*
X148551960Y-79399362D01*
X148621897Y-79387145D01*
X148687338Y-79414678D01*
X148715166Y-79446511D01*
X148772694Y-79540388D01*
X148778777Y-79548699D01*
X148918213Y-79709667D01*
X148925580Y-79716883D01*
X149089434Y-79852916D01*
X149097881Y-79858831D01*
X149281756Y-79966279D01*
X149291042Y-79970729D01*
X149490001Y-80046703D01*
X149499899Y-80049579D01*
X149603250Y-80070606D01*
X149617299Y-80069410D01*
X149621000Y-80059065D01*
X149621000Y-80058517D01*
X150129000Y-80058517D01*
X150133064Y-80072359D01*
X150146478Y-80074393D01*
X150153184Y-80073534D01*
X150163262Y-80071392D01*
X150367255Y-80010191D01*
X150376842Y-80006433D01*
X150568095Y-79912739D01*
X150576945Y-79907464D01*
X150750328Y-79783792D01*
X150758200Y-79777139D01*
X150909052Y-79626812D01*
X150915730Y-79618965D01*
X151040003Y-79446020D01*
X151045313Y-79437183D01*
X151139670Y-79246267D01*
X151143469Y-79236672D01*
X151205377Y-79032910D01*
X151207555Y-79022837D01*
X151208986Y-79011962D01*
X151206775Y-78997778D01*
X151193617Y-78994000D01*
X150147115Y-78994000D01*
X150131876Y-78998475D01*
X150130671Y-78999865D01*
X150129000Y-79007548D01*
X150129000Y-80058517D01*
X149621000Y-80058517D01*
X149621000Y-78983386D01*
X153096528Y-78983386D01*
X153102362Y-78993151D01*
X154487190Y-80377980D01*
X154501131Y-80385592D01*
X154502966Y-80385461D01*
X154509580Y-80381210D01*
X155895884Y-78994905D01*
X155903399Y-78981144D01*
X155896941Y-78971784D01*
X155880639Y-78957488D01*
X155874099Y-78952470D01*
X155634856Y-78792613D01*
X155627719Y-78788492D01*
X155369651Y-78661228D01*
X155362047Y-78658078D01*
X155089580Y-78565588D01*
X155081617Y-78563454D01*
X154799400Y-78507317D01*
X154791249Y-78506244D01*
X154504119Y-78487425D01*
X154495881Y-78487425D01*
X154208751Y-78506244D01*
X154200600Y-78507317D01*
X153918383Y-78563454D01*
X153910420Y-78565588D01*
X153637953Y-78658078D01*
X153630349Y-78661228D01*
X153372282Y-78788492D01*
X153365145Y-78792613D01*
X153125901Y-78952470D01*
X153119361Y-78957488D01*
X153104926Y-78970147D01*
X153096528Y-78983386D01*
X149621000Y-78983386D01*
X149621000Y-78467885D01*
X150129000Y-78467885D01*
X150133475Y-78483124D01*
X150134865Y-78484329D01*
X150142548Y-78486000D01*
X151193344Y-78486000D01*
X151206875Y-78482027D01*
X151208180Y-78472947D01*
X151166214Y-78305875D01*
X151162894Y-78296124D01*
X151077972Y-78100814D01*
X151073105Y-78091739D01*
X150957426Y-77912926D01*
X150951136Y-77904757D01*
X150807806Y-77747240D01*
X150800273Y-77740215D01*
X150633139Y-77608222D01*
X150624552Y-77602517D01*
X150438117Y-77499599D01*
X150428705Y-77495369D01*
X150227959Y-77424280D01*
X150217988Y-77421646D01*
X150146837Y-77408972D01*
X150133540Y-77410432D01*
X150129000Y-77424989D01*
X150129000Y-78467885D01*
X149621000Y-78467885D01*
X149621000Y-77423102D01*
X149617082Y-77409758D01*
X149602806Y-77407771D01*
X149564324Y-77413660D01*
X149554288Y-77416051D01*
X149351868Y-77482212D01*
X149342359Y-77486209D01*
X149153463Y-77584542D01*
X149144738Y-77590036D01*
X148974433Y-77717905D01*
X148966726Y-77724748D01*
X148819590Y-77878717D01*
X148813109Y-77886722D01*
X148708498Y-78040074D01*
X148653587Y-78085076D01*
X148583062Y-78093247D01*
X148519315Y-78061993D01*
X148498618Y-78037509D01*
X148417822Y-77912617D01*
X148417820Y-77912614D01*
X148415014Y-77908277D01*
X148264670Y-77743051D01*
X148260619Y-77739852D01*
X148260615Y-77739848D01*
X148093414Y-77607800D01*
X148093410Y-77607798D01*
X148089359Y-77604598D01*
X148053028Y-77584542D01*
X148037136Y-77575769D01*
X147893789Y-77496638D01*
X147888920Y-77494914D01*
X147888916Y-77494912D01*
X147688087Y-77423795D01*
X147688083Y-77423794D01*
X147683212Y-77422069D01*
X147678119Y-77421162D01*
X147678116Y-77421161D01*
X147468373Y-77383800D01*
X147468367Y-77383799D01*
X147463284Y-77382894D01*
X147389452Y-77381992D01*
X147245081Y-77380228D01*
X147245079Y-77380228D01*
X147239911Y-77380165D01*
X147019091Y-77413955D01*
X146806756Y-77483357D01*
X146608607Y-77586507D01*
X146604474Y-77589610D01*
X146604471Y-77589612D01*
X146434100Y-77717530D01*
X146429965Y-77720635D01*
X146373537Y-77779684D01*
X146349283Y-77805064D01*
X146287759Y-77840494D01*
X146216846Y-77837037D01*
X146159060Y-77795791D01*
X146140207Y-77762243D01*
X146098767Y-77651703D01*
X146095615Y-77643295D01*
X146008261Y-77526739D01*
X145891705Y-77439385D01*
X145755316Y-77388255D01*
X145693134Y-77381500D01*
X144384595Y-77381500D01*
X144316474Y-77361498D01*
X144295500Y-77344595D01*
X143791405Y-76840500D01*
X143757379Y-76778188D01*
X143754500Y-76751405D01*
X143754500Y-75180579D01*
X143774502Y-75112458D01*
X143828158Y-75065965D01*
X143898432Y-75055861D01*
X143933750Y-75066384D01*
X144081947Y-75135490D01*
X144092239Y-75139236D01*
X144264503Y-75185394D01*
X144278599Y-75185058D01*
X144282000Y-75177116D01*
X144282000Y-75171967D01*
X144790000Y-75171967D01*
X144793973Y-75185498D01*
X144802522Y-75186727D01*
X144979761Y-75139236D01*
X144990053Y-75135490D01*
X145187511Y-75043414D01*
X145197007Y-75037931D01*
X145375467Y-74912972D01*
X145383875Y-74905916D01*
X145537916Y-74751875D01*
X145544972Y-74743467D01*
X145669931Y-74565007D01*
X145675414Y-74555511D01*
X145691529Y-74520951D01*
X145738446Y-74467666D01*
X145806723Y-74448205D01*
X145874683Y-74468747D01*
X145919919Y-74520951D01*
X145936151Y-74555762D01*
X145936154Y-74555767D01*
X145938477Y-74560749D01*
X146069802Y-74748300D01*
X146231700Y-74910198D01*
X146236208Y-74913355D01*
X146236211Y-74913357D01*
X146277542Y-74942297D01*
X146419251Y-75041523D01*
X146424233Y-75043846D01*
X146424238Y-75043849D01*
X146620765Y-75135490D01*
X146626757Y-75138284D01*
X146632065Y-75139706D01*
X146632067Y-75139707D01*
X146842598Y-75196119D01*
X146842600Y-75196119D01*
X146847913Y-75197543D01*
X147076000Y-75217498D01*
X147304087Y-75197543D01*
X147309400Y-75196119D01*
X147309402Y-75196119D01*
X147519933Y-75139707D01*
X147519935Y-75139706D01*
X147525243Y-75138284D01*
X147531235Y-75135490D01*
X147727762Y-75043849D01*
X147727767Y-75043846D01*
X147732749Y-75041523D01*
X147874458Y-74942297D01*
X147915789Y-74913357D01*
X147915792Y-74913355D01*
X147920300Y-74910198D01*
X148013364Y-74817134D01*
X151041500Y-74817134D01*
X151048255Y-74879316D01*
X151099385Y-75015705D01*
X151186739Y-75132261D01*
X151303295Y-75219615D01*
X151439684Y-75270745D01*
X151501866Y-75277500D01*
X153298134Y-75277500D01*
X153360316Y-75270745D01*
X153496705Y-75219615D01*
X153613261Y-75132261D01*
X153700615Y-75015705D01*
X153751745Y-74879316D01*
X153758500Y-74817134D01*
X153758500Y-73020866D01*
X153751745Y-72958684D01*
X153700615Y-72822295D01*
X153613261Y-72705739D01*
X153496705Y-72618385D01*
X153414698Y-72587642D01*
X153377687Y-72573767D01*
X153320923Y-72531125D01*
X153296223Y-72464564D01*
X153311430Y-72395215D01*
X153332977Y-72366535D01*
X153434052Y-72265812D01*
X153440730Y-72257965D01*
X153565003Y-72085020D01*
X153570313Y-72076183D01*
X153664670Y-71885267D01*
X153668469Y-71875672D01*
X153730377Y-71671910D01*
X153732555Y-71661837D01*
X153733986Y-71650962D01*
X153731775Y-71636778D01*
X153718617Y-71633000D01*
X151083225Y-71633000D01*
X151069694Y-71636973D01*
X151068257Y-71646966D01*
X151098565Y-71781446D01*
X151101645Y-71791275D01*
X151181770Y-71988603D01*
X151186413Y-71997794D01*
X151297694Y-72179388D01*
X151303777Y-72187699D01*
X151443213Y-72348667D01*
X151450577Y-72355879D01*
X151455522Y-72359985D01*
X151495156Y-72418889D01*
X151496653Y-72489870D01*
X151459537Y-72550392D01*
X151419264Y-72574910D01*
X151311705Y-72615232D01*
X151311704Y-72615233D01*
X151303295Y-72618385D01*
X151186739Y-72705739D01*
X151099385Y-72822295D01*
X151048255Y-72958684D01*
X151041500Y-73020866D01*
X151041500Y-74817134D01*
X148013364Y-74817134D01*
X148082198Y-74748300D01*
X148213523Y-74560749D01*
X148215846Y-74555767D01*
X148215849Y-74555762D01*
X148307961Y-74358225D01*
X148307961Y-74358224D01*
X148310284Y-74353243D01*
X148369543Y-74132087D01*
X148389498Y-73904000D01*
X148369543Y-73675913D01*
X148310284Y-73454757D01*
X148232081Y-73287049D01*
X148215849Y-73252238D01*
X148215846Y-73252233D01*
X148213523Y-73247251D01*
X148082198Y-73059700D01*
X147920300Y-72897802D01*
X147915792Y-72894645D01*
X147915789Y-72894643D01*
X147824473Y-72830703D01*
X147732749Y-72766477D01*
X147727767Y-72764154D01*
X147727762Y-72764151D01*
X147530225Y-72672039D01*
X147530224Y-72672039D01*
X147525243Y-72669716D01*
X147519935Y-72668294D01*
X147519933Y-72668293D01*
X147309402Y-72611881D01*
X147309400Y-72611881D01*
X147304087Y-72610457D01*
X147076000Y-72590502D01*
X146847913Y-72610457D01*
X146842600Y-72611881D01*
X146842598Y-72611881D01*
X146632067Y-72668293D01*
X146632065Y-72668294D01*
X146626757Y-72669716D01*
X146621776Y-72672039D01*
X146621775Y-72672039D01*
X146424238Y-72764151D01*
X146424233Y-72764154D01*
X146419251Y-72766477D01*
X146327527Y-72830703D01*
X146236211Y-72894643D01*
X146236208Y-72894645D01*
X146231700Y-72897802D01*
X146069802Y-73059700D01*
X145938477Y-73247251D01*
X145936154Y-73252233D01*
X145936151Y-73252238D01*
X145919919Y-73287049D01*
X145873002Y-73340334D01*
X145804725Y-73359795D01*
X145736765Y-73339253D01*
X145691529Y-73287049D01*
X145675414Y-73252489D01*
X145669931Y-73242993D01*
X145544972Y-73064533D01*
X145537916Y-73056125D01*
X145383875Y-72902084D01*
X145375467Y-72895028D01*
X145197007Y-72770069D01*
X145187511Y-72764586D01*
X144990053Y-72672510D01*
X144979761Y-72668764D01*
X144807497Y-72622606D01*
X144793401Y-72622942D01*
X144790000Y-72630884D01*
X144790000Y-75171967D01*
X144282000Y-75171967D01*
X144282000Y-72636033D01*
X144278027Y-72622502D01*
X144269478Y-72621273D01*
X144092239Y-72668764D01*
X144081947Y-72672510D01*
X143933750Y-72741616D01*
X143863559Y-72752277D01*
X143798746Y-72723297D01*
X143759889Y-72663878D01*
X143754500Y-72627421D01*
X143754500Y-71113183D01*
X151064389Y-71113183D01*
X151065912Y-71121607D01*
X151078292Y-71125000D01*
X152127885Y-71125000D01*
X152143124Y-71120525D01*
X152144329Y-71119135D01*
X152146000Y-71111452D01*
X152146000Y-71106885D01*
X152654000Y-71106885D01*
X152658475Y-71122124D01*
X152659865Y-71123329D01*
X152667548Y-71125000D01*
X153718344Y-71125000D01*
X153731875Y-71121027D01*
X153733180Y-71111947D01*
X153691214Y-70944875D01*
X153687894Y-70935124D01*
X153602972Y-70739814D01*
X153598105Y-70730739D01*
X153482426Y-70551926D01*
X153476136Y-70543757D01*
X153332806Y-70386240D01*
X153325273Y-70379215D01*
X153158139Y-70247222D01*
X153149552Y-70241517D01*
X152963117Y-70138599D01*
X152953705Y-70134369D01*
X152752959Y-70063280D01*
X152742988Y-70060646D01*
X152671837Y-70047972D01*
X152658540Y-70049432D01*
X152654000Y-70063989D01*
X152654000Y-71106885D01*
X152146000Y-71106885D01*
X152146000Y-70062102D01*
X152142082Y-70048758D01*
X152127806Y-70046771D01*
X152089324Y-70052660D01*
X152079288Y-70055051D01*
X151876868Y-70121212D01*
X151867359Y-70125209D01*
X151678463Y-70223542D01*
X151669738Y-70229036D01*
X151499433Y-70356905D01*
X151491726Y-70363748D01*
X151344590Y-70517717D01*
X151338104Y-70525727D01*
X151218098Y-70701649D01*
X151213000Y-70710623D01*
X151123338Y-70903783D01*
X151119775Y-70913470D01*
X151064389Y-71113183D01*
X143754500Y-71113183D01*
X143754500Y-69949767D01*
X143755027Y-69938584D01*
X143756702Y-69931091D01*
X143754562Y-69863014D01*
X143754500Y-69859055D01*
X143754500Y-69831144D01*
X143753995Y-69827144D01*
X143753062Y-69815301D01*
X143751922Y-69779030D01*
X143751673Y-69771111D01*
X143746021Y-69751657D01*
X143742013Y-69732300D01*
X143740468Y-69720070D01*
X143740468Y-69720069D01*
X143739474Y-69712203D01*
X143736555Y-69704830D01*
X143723196Y-69671088D01*
X143719351Y-69659858D01*
X143709229Y-69625017D01*
X143709229Y-69625016D01*
X143707018Y-69617407D01*
X143702985Y-69610588D01*
X143702983Y-69610583D01*
X143696707Y-69599972D01*
X143688012Y-69582224D01*
X143680552Y-69563383D01*
X143654564Y-69527613D01*
X143648048Y-69517693D01*
X143629580Y-69486465D01*
X143629578Y-69486462D01*
X143625542Y-69479638D01*
X143611221Y-69465317D01*
X143598380Y-69450283D01*
X143591131Y-69440306D01*
X143586472Y-69433893D01*
X143580367Y-69428842D01*
X143580362Y-69428837D01*
X143552402Y-69405706D01*
X143543624Y-69397719D01*
X143197122Y-69051218D01*
X143163097Y-68988905D01*
X143160907Y-68975292D01*
X143144232Y-68816635D01*
X143144232Y-68816633D01*
X143143542Y-68810072D01*
X143084527Y-68628444D01*
X142989040Y-68463056D01*
X142861253Y-68321134D01*
X142789299Y-68268856D01*
X153096601Y-68268856D01*
X153103059Y-68278216D01*
X153119361Y-68292512D01*
X153125901Y-68297530D01*
X153365144Y-68457387D01*
X153372281Y-68461508D01*
X153630349Y-68588772D01*
X153637953Y-68591922D01*
X153910420Y-68684412D01*
X153918383Y-68686546D01*
X154200600Y-68742683D01*
X154208751Y-68743756D01*
X154495881Y-68762575D01*
X154504119Y-68762575D01*
X154791249Y-68743756D01*
X154799400Y-68742683D01*
X155081617Y-68686546D01*
X155089580Y-68684412D01*
X155362047Y-68591922D01*
X155369651Y-68588772D01*
X155627719Y-68461508D01*
X155634856Y-68457387D01*
X155874099Y-68297530D01*
X155880639Y-68292512D01*
X155895074Y-68279853D01*
X155903472Y-68266614D01*
X155897638Y-68256849D01*
X154512810Y-66872020D01*
X154498869Y-66864408D01*
X154497034Y-66864539D01*
X154490420Y-66868790D01*
X153104116Y-68255095D01*
X153096601Y-68268856D01*
X142789299Y-68268856D01*
X142706752Y-68208882D01*
X142700724Y-68206198D01*
X142700722Y-68206197D01*
X142538319Y-68133891D01*
X142538318Y-68133891D01*
X142532288Y-68131206D01*
X142438888Y-68111353D01*
X142351944Y-68092872D01*
X142351939Y-68092872D01*
X142345487Y-68091500D01*
X142154513Y-68091500D01*
X142148061Y-68092872D01*
X142148056Y-68092872D01*
X142061112Y-68111353D01*
X141967712Y-68131206D01*
X141961682Y-68133891D01*
X141961681Y-68133891D01*
X141799278Y-68206197D01*
X141799276Y-68206198D01*
X141793248Y-68208882D01*
X141638747Y-68321134D01*
X141510960Y-68463056D01*
X141415473Y-68628444D01*
X141356458Y-68810072D01*
X141336496Y-69000000D01*
X141356458Y-69189928D01*
X141415473Y-69371556D01*
X141418776Y-69377278D01*
X141418777Y-69377279D01*
X141448544Y-69428837D01*
X141510960Y-69536944D01*
X141515378Y-69541851D01*
X141515379Y-69541852D01*
X141577265Y-69610583D01*
X141638747Y-69678866D01*
X141793248Y-69791118D01*
X141799276Y-69793802D01*
X141799278Y-69793803D01*
X141961681Y-69866109D01*
X141967712Y-69868794D01*
X142061112Y-69888647D01*
X142148056Y-69907128D01*
X142148061Y-69907128D01*
X142154513Y-69908500D01*
X142210405Y-69908500D01*
X142278526Y-69928502D01*
X142299500Y-69945405D01*
X142450595Y-70096500D01*
X142484621Y-70158812D01*
X142487500Y-70185595D01*
X142487500Y-72516832D01*
X142467498Y-72584953D01*
X142413842Y-72631446D01*
X142343568Y-72641550D01*
X142328895Y-72638540D01*
X142224087Y-72610457D01*
X141996000Y-72590502D01*
X141767913Y-72610457D01*
X141762600Y-72611881D01*
X141762598Y-72611881D01*
X141552067Y-72668293D01*
X141552065Y-72668294D01*
X141546757Y-72669716D01*
X141541776Y-72672039D01*
X141541775Y-72672039D01*
X141344238Y-72764151D01*
X141344233Y-72764154D01*
X141339251Y-72766477D01*
X141247527Y-72830703D01*
X141156211Y-72894643D01*
X141156208Y-72894645D01*
X141151700Y-72897802D01*
X140989802Y-73059700D01*
X140986643Y-73064211D01*
X140983108Y-73068424D01*
X140981974Y-73067473D01*
X140931929Y-73107471D01*
X140861310Y-73114776D01*
X140797951Y-73082742D01*
X140761970Y-73021538D01*
X140758918Y-73004483D01*
X140757745Y-72993684D01*
X140706615Y-72857295D01*
X140619261Y-72740739D01*
X140502705Y-72653385D01*
X140366316Y-72602255D01*
X140304134Y-72595500D01*
X138607866Y-72595500D01*
X138545684Y-72602255D01*
X138409295Y-72653385D01*
X138292739Y-72740739D01*
X138205385Y-72857295D01*
X138154255Y-72993684D01*
X138147500Y-73055866D01*
X138147500Y-74752134D01*
X135178477Y-74752134D01*
X135277003Y-74615020D01*
X135282313Y-74606183D01*
X135376670Y-74415267D01*
X135380469Y-74405672D01*
X135442377Y-74201910D01*
X135444555Y-74191837D01*
X135445986Y-74180962D01*
X135443775Y-74166778D01*
X135430617Y-74163000D01*
X134384115Y-74163000D01*
X134368876Y-74167475D01*
X134367671Y-74168865D01*
X134366000Y-74176548D01*
X134366000Y-75227517D01*
X133858000Y-75227517D01*
X133858000Y-74181115D01*
X133853525Y-74165876D01*
X133852135Y-74164671D01*
X133844452Y-74163000D01*
X132795225Y-74163000D01*
X132781694Y-74166973D01*
X132780257Y-74176966D01*
X127748500Y-74176966D01*
X127748500Y-72267134D01*
X132753500Y-72267134D01*
X132760255Y-72329316D01*
X132811385Y-72465705D01*
X132898739Y-72582261D01*
X133015295Y-72669615D01*
X133023704Y-72672767D01*
X133023705Y-72672768D01*
X133132960Y-72713726D01*
X133189725Y-72756367D01*
X133214425Y-72822929D01*
X133199218Y-72892278D01*
X133179825Y-72918759D01*
X133056590Y-73047717D01*
X133050104Y-73055727D01*
X132930098Y-73231649D01*
X132925000Y-73240623D01*
X132835338Y-73433783D01*
X132831775Y-73443470D01*
X132776389Y-73643183D01*
X132777912Y-73651607D01*
X132790292Y-73655000D01*
X135430344Y-73655000D01*
X135443875Y-73651027D01*
X135445180Y-73641947D01*
X135403214Y-73474875D01*
X135399894Y-73465124D01*
X135314972Y-73269814D01*
X135310105Y-73260739D01*
X135194426Y-73081926D01*
X135188136Y-73073757D01*
X135044293Y-72915677D01*
X135013241Y-72851831D01*
X135021635Y-72781333D01*
X135066812Y-72726564D01*
X135093256Y-72712895D01*
X135200297Y-72672767D01*
X135208705Y-72669615D01*
X135325261Y-72582261D01*
X135412615Y-72465705D01*
X135463745Y-72329316D01*
X135470500Y-72267134D01*
X135470500Y-70470866D01*
X135463745Y-70408684D01*
X135412615Y-70272295D01*
X135325261Y-70155739D01*
X135208705Y-70068385D01*
X135072316Y-70017255D01*
X135010134Y-70010500D01*
X133213866Y-70010500D01*
X133151684Y-70017255D01*
X133015295Y-70068385D01*
X132898739Y-70155739D01*
X132811385Y-70272295D01*
X132760255Y-70408684D01*
X132753500Y-70470866D01*
X132753500Y-72267134D01*
X127748500Y-72267134D01*
X127748500Y-68268856D01*
X128596601Y-68268856D01*
X128603059Y-68278216D01*
X128619361Y-68292512D01*
X128625901Y-68297530D01*
X128865144Y-68457387D01*
X128872281Y-68461508D01*
X129130349Y-68588772D01*
X129137953Y-68591922D01*
X129410420Y-68684412D01*
X129418383Y-68686546D01*
X129700600Y-68742683D01*
X129708751Y-68743756D01*
X129995881Y-68762575D01*
X130004119Y-68762575D01*
X130291249Y-68743756D01*
X130299400Y-68742683D01*
X130581617Y-68686546D01*
X130589580Y-68684412D01*
X130862047Y-68591922D01*
X130869651Y-68588772D01*
X131127719Y-68461508D01*
X131134856Y-68457387D01*
X131374099Y-68297530D01*
X131380639Y-68292512D01*
X131395074Y-68279853D01*
X131403472Y-68266614D01*
X131397638Y-68256849D01*
X130012810Y-66872020D01*
X129998869Y-66864408D01*
X129997034Y-66864539D01*
X129990420Y-66868790D01*
X128604116Y-68255095D01*
X128596601Y-68268856D01*
X127748500Y-68268856D01*
X127748500Y-67580056D01*
X127768502Y-67511935D01*
X127822158Y-67465442D01*
X127892432Y-67455338D01*
X127957012Y-67484832D01*
X127987506Y-67524328D01*
X128038492Y-67627718D01*
X128042613Y-67634855D01*
X128202470Y-67874099D01*
X128207488Y-67880639D01*
X128220147Y-67895074D01*
X128233386Y-67903472D01*
X128243151Y-67897638D01*
X129627980Y-66512810D01*
X129634357Y-66501131D01*
X130364408Y-66501131D01*
X130364539Y-66502966D01*
X130368790Y-66509580D01*
X131755095Y-67895884D01*
X131768856Y-67903399D01*
X131778216Y-67896941D01*
X131792512Y-67880639D01*
X131797530Y-67874099D01*
X131957387Y-67634855D01*
X131961508Y-67627718D01*
X132088772Y-67369651D01*
X132091922Y-67362047D01*
X132184412Y-67089580D01*
X132186546Y-67081617D01*
X132242683Y-66799400D01*
X132243756Y-66791249D01*
X132262575Y-66504119D01*
X132262575Y-66495881D01*
X132248688Y-66284000D01*
X138142502Y-66284000D01*
X138162457Y-66512087D01*
X138163881Y-66517400D01*
X138163881Y-66517402D01*
X138173031Y-66551548D01*
X138221716Y-66733243D01*
X138224039Y-66738224D01*
X138224039Y-66738225D01*
X138316151Y-66935762D01*
X138316154Y-66935767D01*
X138318477Y-66940749D01*
X138449802Y-67128300D01*
X138611700Y-67290198D01*
X138616208Y-67293355D01*
X138616211Y-67293357D01*
X138694389Y-67348098D01*
X138799251Y-67421523D01*
X138804233Y-67423846D01*
X138804238Y-67423849D01*
X139000765Y-67515490D01*
X139006757Y-67518284D01*
X139012065Y-67519706D01*
X139012067Y-67519707D01*
X139222598Y-67576119D01*
X139222600Y-67576119D01*
X139227913Y-67577543D01*
X139456000Y-67597498D01*
X139684087Y-67577543D01*
X139689400Y-67576119D01*
X139689402Y-67576119D01*
X139899933Y-67519707D01*
X139899935Y-67519706D01*
X139905243Y-67518284D01*
X139911235Y-67515490D01*
X140107762Y-67423849D01*
X140107767Y-67423846D01*
X140112749Y-67421523D01*
X140217611Y-67348098D01*
X140295789Y-67293357D01*
X140295792Y-67293355D01*
X140300300Y-67290198D01*
X140462198Y-67128300D01*
X140593523Y-66940749D01*
X140595846Y-66935767D01*
X140595849Y-66935762D01*
X140611805Y-66901543D01*
X140658722Y-66848258D01*
X140726999Y-66828797D01*
X140794959Y-66849339D01*
X140840195Y-66901543D01*
X140856151Y-66935762D01*
X140856154Y-66935767D01*
X140858477Y-66940749D01*
X140989802Y-67128300D01*
X141151700Y-67290198D01*
X141156208Y-67293355D01*
X141156211Y-67293357D01*
X141234389Y-67348098D01*
X141339251Y-67421523D01*
X141344233Y-67423846D01*
X141344238Y-67423849D01*
X141540765Y-67515490D01*
X141546757Y-67518284D01*
X141552065Y-67519706D01*
X141552067Y-67519707D01*
X141762598Y-67576119D01*
X141762600Y-67576119D01*
X141767913Y-67577543D01*
X141996000Y-67597498D01*
X142224087Y-67577543D01*
X142229400Y-67576119D01*
X142229402Y-67576119D01*
X142439933Y-67519707D01*
X142439935Y-67519706D01*
X142445243Y-67518284D01*
X142451235Y-67515490D01*
X142647762Y-67423849D01*
X142647767Y-67423846D01*
X142652749Y-67421523D01*
X142757611Y-67348098D01*
X142835789Y-67293357D01*
X142835792Y-67293355D01*
X142840300Y-67290198D01*
X143002198Y-67128300D01*
X143133523Y-66940749D01*
X143135846Y-66935767D01*
X143135849Y-66935762D01*
X143151805Y-66901543D01*
X143198722Y-66848258D01*
X143266999Y-66828797D01*
X143334959Y-66849339D01*
X143380195Y-66901543D01*
X143396151Y-66935762D01*
X143396154Y-66935767D01*
X143398477Y-66940749D01*
X143529802Y-67128300D01*
X143691700Y-67290198D01*
X143696208Y-67293355D01*
X143696211Y-67293357D01*
X143774389Y-67348098D01*
X143879251Y-67421523D01*
X143884233Y-67423846D01*
X143884238Y-67423849D01*
X144080765Y-67515490D01*
X144086757Y-67518284D01*
X144092065Y-67519706D01*
X144092067Y-67519707D01*
X144302598Y-67576119D01*
X144302600Y-67576119D01*
X144307913Y-67577543D01*
X144536000Y-67597498D01*
X144764087Y-67577543D01*
X144769400Y-67576119D01*
X144769402Y-67576119D01*
X144979933Y-67519707D01*
X144979935Y-67519706D01*
X144985243Y-67518284D01*
X144991235Y-67515490D01*
X145187762Y-67423849D01*
X145187767Y-67423846D01*
X145192749Y-67421523D01*
X145297611Y-67348098D01*
X145375789Y-67293357D01*
X145375792Y-67293355D01*
X145380300Y-67290198D01*
X145542198Y-67128300D01*
X145673523Y-66940749D01*
X145675846Y-66935767D01*
X145675849Y-66935762D01*
X145692081Y-66900951D01*
X145738998Y-66847666D01*
X145807275Y-66828205D01*
X145875235Y-66848747D01*
X145920471Y-66900951D01*
X145936586Y-66935511D01*
X145942069Y-66945007D01*
X146067028Y-67123467D01*
X146074084Y-67131875D01*
X146228125Y-67285916D01*
X146236533Y-67292972D01*
X146414993Y-67417931D01*
X146424489Y-67423414D01*
X146621947Y-67515490D01*
X146632239Y-67519236D01*
X146804503Y-67565394D01*
X146818599Y-67565058D01*
X146822000Y-67557116D01*
X146822000Y-67551967D01*
X147330000Y-67551967D01*
X147333973Y-67565498D01*
X147342522Y-67566727D01*
X147519761Y-67519236D01*
X147530053Y-67515490D01*
X147727511Y-67423414D01*
X147737007Y-67417931D01*
X147915467Y-67292972D01*
X147923875Y-67285916D01*
X148077916Y-67131875D01*
X148084972Y-67123467D01*
X148209931Y-66945007D01*
X148215414Y-66935511D01*
X148307490Y-66738053D01*
X148311236Y-66727761D01*
X148357394Y-66555497D01*
X148357058Y-66541401D01*
X148349116Y-66538000D01*
X147348115Y-66538000D01*
X147332876Y-66542475D01*
X147331671Y-66543865D01*
X147330000Y-66551548D01*
X147330000Y-67551967D01*
X146822000Y-67551967D01*
X146822000Y-66504119D01*
X152237425Y-66504119D01*
X152256244Y-66791249D01*
X152257317Y-66799400D01*
X152313454Y-67081617D01*
X152315588Y-67089580D01*
X152408078Y-67362047D01*
X152411228Y-67369651D01*
X152538492Y-67627718D01*
X152542613Y-67634855D01*
X152702470Y-67874099D01*
X152707488Y-67880639D01*
X152720147Y-67895074D01*
X152733386Y-67903472D01*
X152743151Y-67897638D01*
X154127980Y-66512810D01*
X154135592Y-66498869D01*
X154135461Y-66497034D01*
X154131210Y-66490420D01*
X152744905Y-65104116D01*
X152731144Y-65096601D01*
X152721784Y-65103059D01*
X152707488Y-65119361D01*
X152702470Y-65125901D01*
X152542613Y-65365145D01*
X152538492Y-65372282D01*
X152411228Y-65630349D01*
X152408078Y-65637953D01*
X152315588Y-65910420D01*
X152313454Y-65918383D01*
X152257317Y-66200600D01*
X152256244Y-66208751D01*
X152237425Y-66495881D01*
X152237425Y-66504119D01*
X146822000Y-66504119D01*
X146822000Y-66011885D01*
X147330000Y-66011885D01*
X147334475Y-66027124D01*
X147335865Y-66028329D01*
X147343548Y-66030000D01*
X148343967Y-66030000D01*
X148357498Y-66026027D01*
X148358727Y-66017478D01*
X148311236Y-65840239D01*
X148307490Y-65829947D01*
X148215414Y-65632489D01*
X148209931Y-65622993D01*
X148084972Y-65444533D01*
X148077916Y-65436125D01*
X147923875Y-65282084D01*
X147915467Y-65275028D01*
X147737007Y-65150069D01*
X147727511Y-65144586D01*
X147530053Y-65052510D01*
X147519761Y-65048764D01*
X147347497Y-65002606D01*
X147333401Y-65002942D01*
X147330000Y-65010884D01*
X147330000Y-66011885D01*
X146822000Y-66011885D01*
X146822000Y-65016033D01*
X146818027Y-65002502D01*
X146809478Y-65001273D01*
X146632239Y-65048764D01*
X146621947Y-65052510D01*
X146424489Y-65144586D01*
X146414993Y-65150069D01*
X146236533Y-65275028D01*
X146228125Y-65282084D01*
X146074084Y-65436125D01*
X146067028Y-65444533D01*
X145942069Y-65622993D01*
X145936586Y-65632489D01*
X145920471Y-65667049D01*
X145873554Y-65720334D01*
X145805277Y-65739795D01*
X145737317Y-65719253D01*
X145692081Y-65667049D01*
X145675849Y-65632238D01*
X145675846Y-65632233D01*
X145673523Y-65627251D01*
X145542198Y-65439700D01*
X145380300Y-65277802D01*
X145375792Y-65274645D01*
X145375789Y-65274643D01*
X145297611Y-65219902D01*
X145192749Y-65146477D01*
X145187767Y-65144154D01*
X145187762Y-65144151D01*
X144990225Y-65052039D01*
X144990224Y-65052039D01*
X144985243Y-65049716D01*
X144979935Y-65048294D01*
X144979933Y-65048293D01*
X144769402Y-64991881D01*
X144769400Y-64991881D01*
X144764087Y-64990457D01*
X144536000Y-64970502D01*
X144307913Y-64990457D01*
X144302600Y-64991881D01*
X144302598Y-64991881D01*
X144092067Y-65048293D01*
X144092065Y-65048294D01*
X144086757Y-65049716D01*
X144081776Y-65052039D01*
X144081775Y-65052039D01*
X143884238Y-65144151D01*
X143884233Y-65144154D01*
X143879251Y-65146477D01*
X143774389Y-65219902D01*
X143696211Y-65274643D01*
X143696208Y-65274645D01*
X143691700Y-65277802D01*
X143529802Y-65439700D01*
X143398477Y-65627251D01*
X143396154Y-65632233D01*
X143396151Y-65632238D01*
X143380195Y-65666457D01*
X143333278Y-65719742D01*
X143265001Y-65739203D01*
X143197041Y-65718661D01*
X143151805Y-65666457D01*
X143135849Y-65632238D01*
X143135846Y-65632233D01*
X143133523Y-65627251D01*
X143002198Y-65439700D01*
X142840300Y-65277802D01*
X142835792Y-65274645D01*
X142835789Y-65274643D01*
X142757611Y-65219902D01*
X142652749Y-65146477D01*
X142647767Y-65144154D01*
X142647762Y-65144151D01*
X142450225Y-65052039D01*
X142450224Y-65052039D01*
X142445243Y-65049716D01*
X142439935Y-65048294D01*
X142439933Y-65048293D01*
X142229402Y-64991881D01*
X142229400Y-64991881D01*
X142224087Y-64990457D01*
X141996000Y-64970502D01*
X141767913Y-64990457D01*
X141762600Y-64991881D01*
X141762598Y-64991881D01*
X141552067Y-65048293D01*
X141552065Y-65048294D01*
X141546757Y-65049716D01*
X141541776Y-65052039D01*
X141541775Y-65052039D01*
X141344238Y-65144151D01*
X141344233Y-65144154D01*
X141339251Y-65146477D01*
X141234389Y-65219902D01*
X141156211Y-65274643D01*
X141156208Y-65274645D01*
X141151700Y-65277802D01*
X140989802Y-65439700D01*
X140858477Y-65627251D01*
X140856154Y-65632233D01*
X140856151Y-65632238D01*
X140840195Y-65666457D01*
X140793278Y-65719742D01*
X140725001Y-65739203D01*
X140657041Y-65718661D01*
X140611805Y-65666457D01*
X140595849Y-65632238D01*
X140595846Y-65632233D01*
X140593523Y-65627251D01*
X140462198Y-65439700D01*
X140300300Y-65277802D01*
X140295792Y-65274645D01*
X140295789Y-65274643D01*
X140217611Y-65219902D01*
X140112749Y-65146477D01*
X140107767Y-65144154D01*
X140107762Y-65144151D01*
X139910225Y-65052039D01*
X139910224Y-65052039D01*
X139905243Y-65049716D01*
X139899935Y-65048294D01*
X139899933Y-65048293D01*
X139689402Y-64991881D01*
X139689400Y-64991881D01*
X139684087Y-64990457D01*
X139456000Y-64970502D01*
X139227913Y-64990457D01*
X139222600Y-64991881D01*
X139222598Y-64991881D01*
X139012067Y-65048293D01*
X139012065Y-65048294D01*
X139006757Y-65049716D01*
X139001776Y-65052039D01*
X139001775Y-65052039D01*
X138804238Y-65144151D01*
X138804233Y-65144154D01*
X138799251Y-65146477D01*
X138694389Y-65219902D01*
X138616211Y-65274643D01*
X138616208Y-65274645D01*
X138611700Y-65277802D01*
X138449802Y-65439700D01*
X138318477Y-65627251D01*
X138316154Y-65632233D01*
X138316151Y-65632238D01*
X138300195Y-65666457D01*
X138221716Y-65834757D01*
X138162457Y-66055913D01*
X138142502Y-66284000D01*
X132248688Y-66284000D01*
X132243756Y-66208751D01*
X132242683Y-66200600D01*
X132186546Y-65918383D01*
X132184412Y-65910420D01*
X132091922Y-65637953D01*
X132088772Y-65630349D01*
X131961508Y-65372282D01*
X131957387Y-65365145D01*
X131797530Y-65125901D01*
X131792512Y-65119361D01*
X131779853Y-65104926D01*
X131766614Y-65096528D01*
X131756849Y-65102362D01*
X130372020Y-66487190D01*
X130364408Y-66501131D01*
X129634357Y-66501131D01*
X129635592Y-66498869D01*
X129635461Y-66497034D01*
X129631210Y-66490420D01*
X128244905Y-65104116D01*
X128231144Y-65096601D01*
X128221784Y-65103059D01*
X128207488Y-65119361D01*
X128202470Y-65125901D01*
X128042613Y-65365145D01*
X128038492Y-65372282D01*
X127987506Y-65475672D01*
X127939438Y-65527921D01*
X127870752Y-65545888D01*
X127803256Y-65523869D01*
X127758380Y-65468854D01*
X127748500Y-65419944D01*
X127748500Y-64294500D01*
X127768502Y-64226379D01*
X127822158Y-64179886D01*
X127874500Y-64168500D01*
X129082901Y-64168500D01*
X129151022Y-64188502D01*
G37*
%TD.AperFunction*%
%TD*%
%TA.AperFunction,Conductor*%
%TO.N,GND*%
G36*
X132500000Y-69250000D02*
G01*
X127748500Y-69250000D01*
X127748500Y-64294500D01*
X127768502Y-64226379D01*
X127822158Y-64179886D01*
X127874500Y-64168500D01*
X132500000Y-64168500D01*
X132500000Y-69250000D01*
G37*
%TD.AperFunction*%
%TD*%
%TA.AperFunction,Conductor*%
%TO.N,GND*%
G36*
X132750000Y-83151500D02*
G01*
X127874500Y-83151500D01*
X127806379Y-83131498D01*
X127759886Y-83077842D01*
X127748500Y-83025500D01*
X127748500Y-77250000D01*
X132750000Y-77250000D01*
X132750000Y-83151500D01*
G37*
%TD.AperFunction*%
%TD*%
%TA.AperFunction,Conductor*%
%TO.N,GND*%
G36*
X156731500Y-83025500D02*
G01*
X156711498Y-83093621D01*
X156657842Y-83140114D01*
X156605500Y-83151500D01*
X152000000Y-83151500D01*
X152000000Y-77000000D01*
X156731500Y-77000000D01*
X156731500Y-83025500D01*
G37*
%TD.AperFunction*%
%TD*%
%TA.AperFunction,Conductor*%
%TO.N,GND*%
G36*
X156673621Y-64188502D02*
G01*
X156720114Y-64242158D01*
X156731500Y-64294500D01*
X156731500Y-69001792D01*
X151750739Y-69019005D01*
X151750189Y-64168500D01*
X156605500Y-64168500D01*
X156673621Y-64188502D01*
G37*
%TD.AperFunction*%
%TD*%
M02*
