M48
; DRILL file {KiCad (6.0.9)} date Fri Dec  2 17:42:09 2022
; FORMAT={-:-/ absolute / metric / decimal}
; #@! TF.CreationDate,2022-12-02T17:42:09+09:00
; #@! TF.GenerationSoftware,Kicad,Pcbnew,(6.0.9)
; #@! TF.FileFunction,MixedPlating,1,2
FMAT,2
METRIC
; #@! TA.AperFunction,Plated,PTH,ViaDrill
T1C0.400
; #@! TA.AperFunction,Plated,PTH,ComponentDrill
T2C0.800
; #@! TA.AperFunction,Plated,PTH,ComponentDrill
T3C1.000
; #@! TA.AperFunction,Plated,PTH,ComponentDrill
T4C2.200
%
G90
G05
T1
X129.0Y-71.5
X129.0Y-73.5
X129.0Y-75.5
X129.0Y-77.5
X131.0Y-71.5
X131.0Y-73.5
X131.0Y-75.5
X131.0Y-77.5
X133.0Y-77.5
X133.0Y-79.25
X133.0Y-81.0
X133.75Y-65.5
X133.75Y-67.5
X135.0Y-77.5
X135.0Y-79.25
X136.0Y-65.5
X136.0Y-67.5
X142.25Y-69.0
X147.25Y-81.75
X149.25Y-81.75
X149.75Y-66.0
X149.75Y-67.75
X151.25Y-81.75
X151.5Y-66.0
X151.5Y-67.75
X155.0Y-70.75
X155.0Y-72.75
X155.0Y-74.75
X155.0Y-76.75
T2
X139.456Y-66.284
X139.456Y-73.904
X141.996Y-66.284
X141.996Y-73.904
X144.536Y-66.284
X144.536Y-73.904
X147.076Y-66.284
X147.076Y-73.904
T3
X134.112Y-71.369
X134.112Y-73.909
X144.795Y-78.74
X147.335Y-78.74
X149.875Y-78.74
X152.4Y-71.379
X152.4Y-73.919
T4
X130.0Y-66.5
X130.0Y-81.0
X154.5Y-66.5
X154.5Y-80.75
T0
M30
